# xmcd
#
# Track frame offsets:
#	150
#	9150
#	37754
#	54435
#	71288
#	86321
#	98744
#	115337
#	126641
#	147982
#	176733
#	199383
#	226747
#	248495
#	266463
#	275289
#
# Disc length: 3763 seconds
#
# Revision: 1
# Processed by: cddbd v1.5.2PL0 Copyright (c) Steve Scherf et al.
# Submitted via: audiograbber 1.83.01
#
DISCID=ce0eb110
DTITLE=Resistenza - La Rossa Primavera
DYEAR=1900
DGENRE=
TTITLE0=Guarda Giù Dalla Pianura
TTITLE1=Vecchi Comunisti
TTITLE2=Fischia Il Vento
TTITLE3=Festa Grande D'aprile
TTITLE4=Viva Maria
TTITLE5=L'internazionale
TTITLE6=Luna
TTITLE7=La Gap
TTITLE8=La Barba
TTITLE9=Domitiana
TTITLE10=Torino Rossa
TTITLE11=Resistenza
TTITLE12=L'inferno è Qui
TTITLE13=Cuori In Allarme
TTITLE14=Bella Ciao
TTITLE15=Bandiera Rossa
EXTD=
EXTT0=
EXTT1=
EXTT2=
EXTT3=
EXTT4=
EXTT5=
EXTT6=
EXTT7=
EXTT8=
EXTT9=
EXTT10=
EXTT11=
EXTT12=
EXTT13=
EXTT14=
EXTT15=
PLAYORDER=
